<svg xmlns="http://www.w3.org/2000/svg" viewBox="0 0 32 32" width="32" height="32"><defs></defs><g>
<g>
	<g>
		<g transform="matrix(0.25764126,0,0,0.25764126,-231.592595891,-122.302277926)">
			<g>
				<g>
					<g>
						<path d="M983.2202955555333,519.4232309486374 C983.2202955555333,517.9907625343308 984.14686263317,516.8271616126999 985.2875334095372,516.8271616126999 C985.2875334095372,516.8271616126999 1014.7457090687169,516.8271616126999 1014.7457090687169,516.8271616126999 C1015.8863874744786,516.8271616126999 1016.8129545521153,517.9907625343308 1016.8129545521153,519.4232309486374 C1016.8129545521153,519.4232309486374 1016.8129545521153,528.1849687721237 1016.8129545521153,528.1849687721237 C1016.8129545521153,529.6174371864304 1015.8863874744786,530.7810381080612 1014.7457090687169,530.7810381080612 C1014.7457090687169,530.7810381080612 985.2875334095372,530.7810381080612 985.2875334095372,530.7810381080612 C984.14686263317,530.7810381080612 983.2202955555333,529.6174371864304 983.2202955555333,528.1849687721237 C983.2202955555333,528.1849687721237 983.2202955555333,519.4232309486374 983.2202955555333,519.4232309486374 C983.2202955555333,519.4232309486374 983.2202955555333,519.4232309486374 983.2202955555333,519.4232309486374 Z" fill="#3693ff" stroke="#0e151e" stroke-width="2" stroke-linecap="round" stroke-linejoin="round"/>
					</g>
				</g>
				<g>
					<g>
						<path d="M905.1819597553624,519.3387735511765 C905.1819597553624,517.9063013221726 906.1085277866734,516.742704215239 907.2492004703893,516.742704215239 C907.2492004703893,516.742704215239 936.7073789905919,516.742704215239 936.7073789905919,516.742704215239 C937.8480497669591,516.742704215239 938.7746206592931,517.9063013221726 938.7746206592931,519.3387735511765 C938.7746206592931,519.3387735511765 938.7746206592931,528.1005075599655 938.7746206592931,528.1005075599655 C938.7746206592931,529.5329797889694 937.8480497669591,530.696576895903 936.7073789905919,530.696576895903 C936.7073789905919,530.696576895903 907.2492004703893,530.696576895903 907.2492004703893,530.696576895903 C906.1085277866734,530.696576895903 905.1819597553624,529.5329797889694 905.1819597553624,528.1005075599655 C905.1819597553624,528.1005075599655 905.1819597553624,519.3387735511765 905.1819597553624,519.3387735511765 C905.1819597553624,519.3387735511765 905.1819597553624,519.3387735511765 905.1819597553624,519.3387735511765 Z" fill="#e74a4a" stroke="#420909" stroke-width="2" stroke-linecap="round" stroke-linejoin="round"/>
					</g>
				</g>
				<g>
					<g>
						<path d="M944.2011267017735,519.3387735511765 C944.2011267017735,517.9063013221726 945.1276937794103,516.742704215239 946.2683683704747,516.742704215239 C946.2683683704747,516.742704215239 975.7265440296544,516.742704215239 975.7265440296544,516.742704215239 C976.8672148060216,516.742704215239 977.7937895130528,517.9063013221726 977.7937895130528,519.3387735511765 C977.7937895130528,519.3387735511765 977.7937895130528,528.1005075599655 977.7937895130528,528.1005075599655 C977.7937895130528,529.5329797889694 976.8672148060216,530.696576895903 975.7265440296544,530.696576895903 C975.7265440296544,530.696576895903 946.2683683704747,530.696576895903 946.2683683704747,530.696576895903 C945.1276937794103,530.696576895903 944.2011267017735,529.5329797889694 944.2011267017735,528.1005075599655 C944.2011267017735,528.1005075599655 944.2011267017735,519.3387735511765 944.2011267017735,519.3387735511765 C944.2011267017735,519.3387735511765 944.2011267017735,519.3387735511765 944.2011267017735,519.3387735511765 Z" fill="#d8c826" stroke="#131305" stroke-width="2" stroke-linecap="round" stroke-linejoin="round"/>
					</g>
				</g>
				<g>
					<g>
						<path d="M945.9974562000646,487.83931809921114 C945.9974562000646,484.6862619544968 948.5586859058751,482.1250327255234 951.7117430042638,482.1250327255234 C951.7117430042638,482.1250327255234 970.2831693958653,482.1250327255234 970.2831693958653,482.1250327255234 C973.4362226795567,482.1250327255234 975.9974562000646,484.6862619544968 975.9974562000646,487.83931809921114 C975.9974562000646,487.83931809921114 975.9974562000646,506.41074735183565 975.9974562000646,506.41074735183565 C975.9974562000646,509.5638025428757 973.4362226795567,512.1250322486862 970.2831693958653,512.1250322486862 C970.2831693958653,512.1250322486862 951.7117430042638,512.1250322486862 951.7117430042638,512.1250322486862 C948.5586859058751,512.1250322486862 945.9974562000646,509.5638025428757 945.9974562000646,506.41074735183565 C945.9974562000646,506.41074735183565 945.9974562000646,487.83931809921114 945.9974562000646,487.83931809921114 C945.9974562000646,487.83931809921114 945.9974562000646,487.83931809921114 945.9974562000646,487.83931809921114 Z" fill="#ffffff" stroke="#361c09" stroke-width="2" stroke-linecap="round" stroke-linejoin="round"/>
					</g>
				</g>
				<g>
					<g>
						<path d="M944.2011267017735,539.9103181983933 C944.2011267017735,538.4778459693894 945.1276937794103,537.3142488624558 946.2683683704747,537.3142488624558 C946.2683683704747,537.3142488624558 975.7265440296544,537.3142488624558 975.7265440296544,537.3142488624558 C976.8672148060216,537.3142488624558 977.7937895130528,538.4778459693894 977.7937895130528,539.9103181983933 C977.7937895130528,539.9103181983933 977.7937895130528,548.6720522071823 977.7937895130528,548.6720522071823 C977.7937895130528,550.1045244361862 976.8672148060216,551.2681215431198 975.7265440296544,551.2681215431198 C975.7265440296544,551.2681215431198 946.2683683704747,551.2681215431198 946.2683683704747,551.2681215431198 C945.1276937794103,551.2681215431198 944.2011267017735,550.1045244361862 944.2011267017735,548.6720522071823 C944.2011267017735,548.6720522071823 944.2011267017735,539.9103181983933 944.2011267017735,539.9103181983933 C944.2011267017735,539.9103181983933 944.2011267017735,539.9103181983933 944.2011267017735,539.9103181983933 Z" fill="#d8c826" stroke="#131305" stroke-width="2" stroke-linecap="round" stroke-linejoin="round"/>
					</g>
				</g>
				<g>
					<g>
						<path d="M975.0800596546544,557.8857973243698 C976.5125318836583,557.8857973243698 977.6761289905919,558.8123644020066 977.6761289905919,559.9530351783737 C977.6761289905919,559.9530351783737 977.6761289905919,589.4112108375534 977.6761289905919,589.4112108375534 C977.6761289905919,590.5518892433151 976.5125318836583,591.4784563209519 975.0800596546544,591.4784563209519 C975.0800596546544,591.4784563209519 966.3183256458653,591.4784563209519 966.3183256458653,591.4784563209519 C964.8858534168614,591.4784563209519 963.7222563099278,590.5518892433151 963.7222563099278,589.4112108375534 C963.7222563099278,589.4112108375534 963.7222563099278,559.9530351783737 963.7222563099278,559.9530351783737 C963.7222563099278,558.8123644020066 964.8858534168614,557.8857973243698 966.3183256458653,557.8857973243698 C966.3183256458653,557.8857973243698 975.0800596546544,557.8857973243698 975.0800596546544,557.8857973243698 C975.0800596546544,557.8857973243698 975.0800596546544,557.8857973243698 975.0800596546544,557.8857973243698 Z" fill="#3693ff" stroke="#0e151e" stroke-width="2" stroke-linecap="round" stroke-linejoin="round"/>
					</g>
				</g>
				<g>
					<g>
						<path d="M946.1974226307286,591.4784563209519 C944.7649504017247,591.4784563209519 943.6013532947911,590.5518892433151 943.6013532947911,589.4112108375534 C943.6013532947911,589.4112108375534 943.6013532947911,559.9530351783737 943.6013532947911,559.9530351783737 C943.6013532947911,558.8123644020066 944.7649504017247,557.8857973243698 946.1974226307286,557.8857973243698 C946.1974226307286,557.8857973243698 954.9591566395177,557.8857973243698 954.9591566395177,557.8857973243698 C956.3916288685216,557.8857973243698 957.5552259754552,558.8123644020066 957.5552259754552,559.9530351783737 C957.5552259754552,559.9530351783737 957.5552259754552,589.4112108375534 957.5552259754552,589.4112108375534 C957.5552259754552,590.5518892433151 956.3916288685216,591.4784563209519 954.9591566395177,591.4784563209519 C954.9591566395177,591.4784563209519 946.1974226307286,591.4784563209519 946.1974226307286,591.4784563209519 C946.1974226307286,591.4784563209519 946.1974226307286,591.4784563209519 946.1974226307286,591.4784563209519 Z" fill="#e74a4a" stroke="#420909" stroke-width="2" stroke-linecap="round" stroke-linejoin="round"/>
					</g>
				</g>
			</g>
		</g>
	</g>
</g></g></svg>