<svg xmlns="http://www.w3.org/2000/svg" viewBox="0 0 128 128" width="128" height="128"><defs></defs><g>
<g>
	<g>
		<path d="M86.2228366520724,44.108983537246786 C86.2228366520724,42.676511842019316 87.14940536541096,41.51291392294299 88.29007727086987,41.51291392294299 L117.74825608873384,41.51291392294299 C118.88892799419276,41.51291392294299 119.81549670753131,42.676511842019316 119.81549670753131,44.108983537246786 L119.81549670753131,52.870718485522076 C119.81549670753131,54.303190180749546 118.88892799419276,55.46678809982587 117.74825608873384,55.46678809982587 L88.29007727086987,55.46678809982587 C87.14940536541096,55.46678809982587 86.2228366520724,54.303190180749546 86.2228366520724,52.870718485522076 L86.2228366520724,44.108983537246786 Z" fill="#3693ff" stroke="#0e151e" stroke-width="2" stroke-linecap="round" stroke-linejoin="round"/>
	</g>
	<g>
		<path d="M8.184503292468154,44.02452435452517 C8.184503292468154,42.5920526592977 9.111072005806712,41.428454740221376 10.251743911265626,41.428454740221376 L39.70992272912958,41.428454740221376 C40.8505946345885,41.428454740221376 41.77716334792706,42.5920526592977 41.77716334792706,44.02452435452517 L41.77716334792706,52.78625930280046 C41.77716334792706,54.21873099802793 40.8505946345885,55.38232891710425 39.70992272912958,55.38232891710425 L10.251743911265626,55.38232891710425 C9.111072005806712,55.38232891710425 8.184503292468154,54.21873099802793 8.184503292468154,52.78625930280046 L8.184503292468154,44.02452435452517 Z" fill="#e74a4a" stroke="#420909" stroke-width="2" stroke-linecap="round" stroke-linejoin="round"/>
	</g>
	<g>
		<path d="M47.20366997227052,44.024524354525 C47.20366997227052,42.59205265929753 48.13023868560908,41.428454740221206 49.270910591067995,41.428454740221206 L78.72908940893196,41.428454740221206 C79.86976131439087,41.428454740221206 80.79633002772943,42.59205265929753 80.79633002772943,44.024524354525 L80.79633002772943,52.78625930280029 C80.79633002772943,54.21873099802776 79.86976131439087,55.38232891710408 78.72908940893196,55.38232891710408 L49.270910591067995,55.38232891710408 C48.13023868560908,55.38232891710408 47.20366997227052,54.21873099802776 47.20366997227052,52.78625930280029 L47.20366997227052,44.024524354525 Z" fill="#d8c826" stroke="#131305" stroke-width="2" stroke-linecap="round" stroke-linejoin="round"/>
	</g>
	<g>
		<path d="M48.99999999999996,12.52506937161104 C48.99999999999996,9.372013498588112 51.56122984126273,6.8107836573253415 54.71428571428566,6.8107836573253415 L73.28571428571419,6.8107836573253415 C76.43877015873713,6.8107836573253415 78.9999999999999,9.372013498588112 78.9999999999999,12.52506937161104 L78.9999999999999,31.096497943039566 C78.9999999999999,34.249553816062495 76.43877015873713,36.81078365732526 73.28571428571419,36.81078365732526 L54.71428571428566,36.81078365732526 C51.56122984126273,36.81078365732526 48.99999999999996,34.249553816062495 48.99999999999996,31.096497943039566 L48.99999999999996,12.52506937161104 Z" fill="#ffffff" stroke="#361c09" stroke-width="2" stroke-linecap="round" stroke-linejoin="round"/>
	</g>
	<g>
		<path d="M47.20366997227052,64.5960696143038 C47.20366997227052,63.16359791907633 48.13023868560908,62.00000000000001 49.270910591067995,62.00000000000001 L78.72908940893196,62.00000000000001 C79.86976131439087,62.00000000000001 80.79633002772943,63.16359791907633 80.79633002772943,64.5960696143038 L80.79633002772943,73.35780456257909 C80.79633002772943,74.79027625780657 79.86976131439087,75.95387417688288 78.72908940893196,75.95387417688288 L49.270910591067995,75.95387417688288 C48.13023868560908,75.95387417688288 47.20366997227052,74.79027625780657 47.20366997227052,73.35780456257909 L47.20366997227052,64.5960696143038 Z" fill="#d8c826" stroke="#131305" stroke-width="2" stroke-linecap="round" stroke-linejoin="round"/>
	</g>
	<g>
		<path d="M78.08260640749961,82.57154525977886 C79.51507810272707,82.57154525977886 80.6786760218034,83.49811397311743 80.6786760218034,84.63878587857633 L80.6786760218034,114.0969646964403 C80.6786760218034,115.2376366018992 79.51507810272709,116.16420531523777 78.08260640749961,116.16420531523777 L69.32087145922432,116.16420531523777 C67.88839976399686,116.16420531523777 66.72480184492053,115.2376366018992 66.72480184492053,114.0969646964403 L66.72480184492053,84.63878587857633 C66.72480184492053,83.49811397311743 67.88839976399684,82.57154525977886 69.32087145922432,82.57154525977886 L78.08260640749961,82.57154525977886 Z" transform="matrix(1,0,0,1,0,0)" fill="#3693ff" stroke="#0e151e" stroke-width="2" stroke-linecap="round" stroke-linejoin="round"/>
	</g>
	<g>
		<path d="M49.19996584606001,116.1642053152378 C47.76749415083254,116.1642053152378 46.60389623175622,115.23763660189923 46.60389623175622,114.09696469644032 L46.60389623175622,84.63878587857636 C46.60389623175622,83.49811397311746 47.76749415083254,82.57154525977889 49.19996584606001,82.57154525977889 L57.9617007943353,82.57154525977889 C59.39417248956277,82.57154525977889 60.557770408639094,83.49811397311746 60.557770408639094,84.63878587857636 L60.557770408639094,114.09696469644032 C60.557770408639094,115.23763660189923 59.39417248956277,116.1642053152378 57.9617007943353,116.1642053152378 L49.19996584606001,116.1642053152378 Z" fill="#e74a4a" stroke="#420909" stroke-width="2" stroke-linecap="round" stroke-linejoin="round"/>
	</g>
</g></g></svg>