<svg xmlns="http://www.w3.org/2000/svg" viewBox="0 0 32 32" width="32" height="32"><defs></defs><g>
<g>
	<g>
		<path d="M15.999999999999998,3.1012310986900697 C15.999999999999998,3.1012310986900697 16,27.621515763022018 16,27.621515763022018" transform="matrix(1,0,0,1,0,-0.058513794)" fill="none" stroke="#ffffff" stroke-width="2" stroke-linecap="round"/>
	</g>
	<g>
		<path d="M17.486679716312953,4.994170979743635 C17.486679716312953,4.994170979743635 17.43716070584228,27.621515763022014 17.43716070584228,27.621515763022014 C17.43716070584228,27.621515763022014 26.916345384857213,27.62151576302201 26.916345384857213,27.62151576302201 C26.916345384857213,27.62151576302201 17.486679716312953,4.994170979743635 17.486679716312953,4.994170979743635 Z" transform="matrix(1,0,0,1,2.548145298,-1.004983735)" fill="none" stroke="#ffffff" stroke-width="2" stroke-linecap="round" stroke-linejoin="round"/>
	</g>
	<g>
		<path d="M17.486679716312953,4.994170979743635 C17.486679716312953,4.994170979743635 17.43716070584228,27.621515763022018 17.43716070584228,27.621515763022018 C17.43716070584228,27.621515763022018 26.916345384857213,27.62151576302201 26.916345384857213,27.62151576302201 C26.916345384857213,27.62151576302201 17.486679716312953,4.994170979743635 17.486679716312953,4.994170979743635 Z" transform="matrix(-1,0,0,1,29.57113269,-1.004983735)" fill="none" stroke="#ffffff" stroke-width="2" stroke-linecap="round" stroke-linejoin="round"/>
	</g>
</g></g></svg>