<?xml version="1.0" encoding="UTF-8"?>
<svg id="Layer_1" data-name="Layer 1" xmlns="http://www.w3.org/2000/svg" viewBox="0 0 32 32">
  <defs>
    <style>
      .cls-1 {
        fill: #231f20;
      }

      .cls-2 {
        fill: #e7ebee;
      }

      .cls-3 {
        fill: #fedcc1;
      }

      .cls-4 {
        fill: #20a3d2;
      }

      .cls-5 {
        fill: #fbc2a6;
      }
    </style>
  </defs>
  <g>
    <path class="cls-4" d="M19.52,7.26c1.15-.78,2.08-.93,2.75-.91,1.51.05,2.15,1.01,3.75,1.17,1.15.12,2.14-.24,2.84-.59-.13.6-.25,1.2-.38,1.8-.37.18-.96.41-1.7.42-1.8.02-2.59-1.3-4.39-1.48-.58-.06-1.45-.02-2.57.53-.1-.32-.19-.63-.29-.95Z"/>
    <path class="cls-1" d="M26.74,9.4c-.99,0-1.7-.38-2.38-.75-.61-.33-1.19-.65-1.99-.73-.77-.08-1.6.09-2.44.51l-.26.13-.43-1.4.15-.1c.98-.67,1.95-.99,2.9-.95.82.03,1.41.31,1.98.59.52.25,1.05.51,1.79.58.87.09,1.78-.1,2.7-.57l.46-.23-.51,2.42-.11.05c-.59.28-1.2.43-1.81.44-.02,0-.03,0-.05,0ZM21.99,7.41c.14,0,.28,0,.42.02.9.09,1.55.44,2.18.78.67.36,1.3.7,2.19.69.5,0,1-.12,1.49-.34l.25-1.2c-.85.35-1.7.49-2.52.41-.82-.08-1.4-.36-1.95-.63-.55-.26-1.06-.52-1.78-.54-.79-.03-1.62.23-2.45.77l.15.5c.69-.3,1.37-.45,2.03-.45Z"/>
  </g>
  <g>
    <path class="cls-4" d="M20.19,8.51c.45-.19,1.19-.42,2.04-.3,1.27.17,1.78.97,3.26,1.59.56.23,1.44.52,2.65.57-.44.57-.88,1.14-1.33,1.7-1.19-.13-1.95-.53-2.42-.87-1.05-.77-1.23-1.65-2.23-2.04-.73-.29-1.47-.15-1.97,0v-.64Z"/>
    <path class="cls-1" d="M26.93,12.33h-.14c-1-.12-1.85-.43-2.54-.93-.49-.36-.8-.74-1.08-1.08-.34-.41-.6-.74-1.1-.94-.52-.2-1.13-.2-1.81,0l-.32.1v-1.14l.15-.06c.74-.31,1.47-.42,2.17-.32.79.11,1.3.44,1.88.81.41.27.84.54,1.44.79.78.33,1.64.51,2.57.55l.48.02-1.7,2.19ZM21.24,8.74c.36,0,.7.06,1.01.19.62.24.95.65,1.3,1.08.27.33.54.67.98.99.59.43,1.32.7,2.17.81l.96-1.23c-.81-.08-1.57-.26-2.27-.55-.64-.27-1.1-.57-1.51-.83-.56-.36-1-.65-1.68-.74-.57-.08-1.16,0-1.76.23v.16c.28-.06.54-.09.8-.09Z"/>
  </g>
  <g>
    <path class="cls-2" d="M.73,11.99c1.5-.22,3.18-.56,5-1.1,2.62-.78,4.83-1.76,6.59-2.69h6.55c1.74.93,3.7,1.87,5.87,2.76,2.32.95,4.51,1.69,6.51,2.27-.16.49-.57,1.54-1.59,2.46-.99.9-2.04,1.21-2.54,1.33.17.4.5,1.02,1.1,1.63.57.58,1.16.9,1.55,1.08-.41.5-1.09,1.19-2.12,1.72-2.12,1.09-4.19.69-4.85.53-2.18.78-4.37,1.57-6.55,2.35-2.81-1.15-5.63-2.3-8.44-3.45-.6.22-1.71.54-3.1.42-1.57-.13-2.7-.75-3.26-1.1.65-.46,1.34-.99,2.04-1.59.86-.74,1.62-1.47,2.27-2.16-.63-.15-1.66-.49-2.69-1.29-1.47-1.13-2.1-2.53-2.35-3.18Z"/>
    <path class="cls-1" d="M16.25,24.6l-8.44-3.45c-1,.35-2.07.49-3.12.4-1.5-.13-2.66-.69-3.37-1.14l-.31-.2.3-.21c.7-.49,1.38-1.02,2.03-1.58.68-.58,1.34-1.2,1.97-1.84-.86-.26-1.66-.67-2.37-1.22-1.38-1.06-2.08-2.37-2.43-3.29l-.11-.29.3-.04c1.67-.24,3.34-.61,4.96-1.09,2.26-.67,4.46-1.57,6.54-2.67l.05-.03h6.67l.05.03c1.89,1.01,3.86,1.94,5.85,2.75,2.11.87,4.29,1.63,6.49,2.26l.24.07-.08.24c-.22.69-.69,1.69-1.66,2.57-.82.74-1.69,1.12-2.35,1.31.24.48.55.91.93,1.29.43.43.93.78,1.48,1.03l.29.13-.2.25c-.62.75-1.36,1.35-2.2,1.78-1.97,1.01-3.92.8-4.94.57l-6.57,2.35ZM7.81,20.63l8.44,3.45,6.53-2.34.07.02c.94.22,2.8.46,4.68-.51.69-.36,1.31-.83,1.84-1.42-.49-.26-.94-.59-1.33-.99-.49-.49-.88-1.07-1.15-1.7l-.12-.27.29-.07c.63-.15,1.56-.48,2.43-1.27.78-.71,1.21-1.5,1.44-2.11-2.13-.62-4.24-1.37-6.29-2.21-1.98-.81-3.95-1.74-5.84-2.75h-6.43c-2.1,1.11-4.31,2.01-6.58,2.68-1.54.46-3.13.81-4.72,1.06.36.83,1,1.9,2.15,2.79.77.59,1.64,1.01,2.6,1.24l.41.1-.29.31c-.72.76-1.49,1.5-2.29,2.18-.56.48-1.15.95-1.76,1.38.67.37,1.63.77,2.83.87,1.01.09,2.05-.05,3-.4l.09-.03Z"/>
  </g>
  <g>
    <path class="cls-3" d="M23.79,15.93c.02-.07.35-.95,1.25-1.17.74-.19,1.33.22,1.51.34.94.64,1.02,1.81,1.02,2.08.01.53-.13.91-.38,1.53-.2.52-.44.91-.76,1.23-.31.31-.5.36-.57.38-.53.12-.97-.33-1.02-.38-.35-1.34-.71-2.68-1.06-4.01Z"/>
    <path class="cls-1" d="M25.69,20.59c-.53,0-.94-.39-1.02-.47l-.05-.05-1.1-4.15.02-.07c.04-.11.4-1.08,1.42-1.33.56-.14,1.14-.01,1.71.38,1.01.69,1.12,1.92,1.13,2.28.01.58-.15.99-.39,1.63-.22.57-.47.97-.81,1.32-.25.25-.48.4-.69.45-.08.02-.16.03-.23.03ZM25.07,19.82c.11.1.42.34.75.27.11-.02.27-.14.45-.31.29-.3.51-.65.7-1.15.24-.62.37-.96.36-1.44,0-.3-.1-1.33-.91-1.89-.17-.11-.68-.46-1.32-.31-.66.17-.96.75-1.05.95l1.02,3.87Z"/>
  </g>
  <g>
    <path class="cls-3" d="M7.5,15.67c-.23-.16-.57-.38-1.02-.57-.53-.22-.83-.35-1.17-.32-.89.08-1.59,1.25-1.75,2.19-.12.73.07,1.33.23,1.84.16.52.27.86.57,1.1.75.61,2.03.06,2.16,0,.33-1.41.66-2.83.98-4.24Z"/>
    <path class="cls-1" d="M5.27,20.44c-.37,0-.75-.09-1.07-.34-.35-.29-.48-.68-.65-1.21-.16-.52-.37-1.17-.24-1.95.16-.94.88-2.3,1.97-2.4.39-.04.73.11,1.29.34.38.16.74.36,1.07.59l.14.1-1.05,4.52-.11.05c-.16.07-.73.31-1.35.31ZM5.41,15.02s-.05,0-.07,0c-.72.07-1.37,1.08-1.53,1.99-.11.67.06,1.23.22,1.72.15.49.25.79.49.98.47.39,1.3.21,1.79.01l.92-3.95c-.27-.18-.55-.33-.84-.45-.46-.19-.73-.31-.98-.31Z"/>
  </g>
  <g>
    <path class="cls-3" d="M6.14,22.75c1.49,3.51,6.18,4.85,9.45,4.81.75,0,6.56-.16,8.8-4.35,1.18-2.2.84-4.48.8-4.73-.17-1.05-.69-2.74-1.97-4.13-.76-.83-1.44-1.17-1.97-2.27-.34-.71-.42-1.56-.49-2.12-.1-.73-.12-1.34-.11-1.78-.99.45-2.81,1.13-5.17,1.13-2.1,0-3.74-.54-4.71-.95-.05.47-.15,1.08-.34,1.76-.04.14-.3,1.08-.72,1.95-.75,1.55-1.44,1.69-2.46,3.14-.41.59-1.27,1.83-1.55,3.52-.02.13-.34,2.14.45,4.01Z"/>
    <path class="cls-1" d="M15.44,27.8c-3.61,0-8.08-1.54-9.53-4.96-.83-1.95-.49-4.06-.47-4.15.3-1.78,1.21-3.07,1.59-3.62.44-.62.82-1.02,1.16-1.36.46-.47.86-.88,1.28-1.75.4-.83.66-1.73.7-1.9.15-.56.27-1.15.33-1.73l.04-.32.3.13c1.47.61,3.03.92,4.61.93,0,0,.01,0,.02,0,1.73,0,3.47-.38,5.05-1.11l.35-.16v.39c0,.58.03,1.17.11,1.74,0,.06.02.13.03.2.07.53.16,1.25.44,1.84.34.71.75,1.09,1.22,1.52.23.21.46.42.71.69,1.47,1.6,1.91,3.51,2.03,4.25.07.43.36,2.69-.82,4.89-2.25,4.19-7.91,4.47-9.02,4.48-.05,0-.1,0-.15,0ZM10.96,8.71c-.07.5-.17,1-.31,1.48-.07.25-.33,1.15-.74,1.99-.45.94-.9,1.39-1.37,1.88-.34.35-.7.71-1.11,1.3-.37.52-1.23,1.75-1.51,3.42-.01.08-.33,2.06.44,3.88,1.38,3.26,5.75,4.7,9.22,4.66,1.06-.01,6.47-.27,8.59-4.22,1.13-2.1.81-4.33.77-4.58-.11-.7-.53-2.5-1.91-4-.23-.25-.46-.46-.68-.66-.49-.45-.95-.87-1.33-1.67-.32-.66-.42-1.43-.49-1.99,0-.07-.02-.13-.03-.2-.06-.47-.1-.95-.11-1.43-1.55.65-3.24,1-4.91,1,0,0-.02,0-.02,0-1.55,0-3.06-.29-4.5-.85Z"/>
  </g>
  <g>
    <path class="cls-2" d="M15.99,11.31c.6-.13,1.22-.28,1.86-.45.79-.21,1.53-.44,2.23-.68.1.38.2.76.3,1.14-.49.26-1.1.53-1.82.76-.88.28-1.67.4-2.31.45-.09-.4-.18-.81-.27-1.21Z"/>
    <path class="cls-1" d="M16.06,12.79l-.36-1.66.24-.05c.62-.13,1.24-.29,1.84-.45.74-.2,1.49-.43,2.22-.68l.25-.08.42,1.58-.17.09c-.59.31-1.22.57-1.86.77-.77.24-1.56.4-2.36.46l-.22.02ZM16.28,11.5l.17.76c.69-.07,1.38-.22,2.04-.42.55-.17,1.09-.39,1.6-.65l-.18-.69c-.66.22-1.33.42-2,.6-.54.15-1.08.28-1.63.4Z"/>
  </g>
  <g>
    <path class="cls-2" d="M15.27,11.35c-.1.39-.2.78-.3,1.17-.56,0-1.31-.07-2.16-.3-.87-.24-1.56-.58-2.04-.87.14-.36.29-.72.43-1.08.54.23,1.17.47,1.89.66.81.22,1.55.35,2.18.42Z"/>
    <path class="cls-1" d="M15.15,12.77h-.19c-.75,0-1.5-.11-2.22-.31-.74-.2-1.45-.51-2.1-.9l-.18-.11.61-1.51.23.1c.6.26,1.22.48,1.85.65.7.19,1.42.33,2.15.41l.28.03-.42,1.64ZM11.07,11.24c.57.32,1.17.57,1.8.74.62.17,1.26.27,1.9.29l.18-.71c-.65-.08-1.31-.22-1.94-.39-.57-.16-1.14-.35-1.69-.58l-.26.65Z"/>
  </g>
  <g>
    <path class="cls-2" d="M10.99,8.55c-.22-.48-.46-1.2-.23-1.93.63-2,4.16-2.15,4.83-2.16.57-.01,4.04-.07,4.79,1.89.31.81.04,1.66-.19,2.16-1.57.27-3.15.53-4.72.8-1.49-.25-2.99-.5-4.48-.76Z"/>
    <path class="cls-1" d="M15.47,9.55l-4.65-.79-.05-.12c-.36-.77-.44-1.48-.24-2.11.66-2.09,4.04-2.31,5.06-2.33,1.27-.02,4.29.13,5.02,2.05.26.67.19,1.49-.19,2.35l-.05.12-4.89.82ZM11.16,8.33l4.31.73,4.55-.77c.21-.51.38-1.21.13-1.85-.62-1.63-3.39-1.75-4.56-1.73-.67.01-4.02.16-4.6,1.99-.15.48-.1,1.03.16,1.64Z"/>
  </g>
  <g>
    <path class="cls-4" d="M10.53,7.79c1.03.4,2.76.93,4.94.91,2.41-.02,4.28-.7,5.33-1.17.05.39.1.78.15,1.17-1.08.49-3,1.2-5.48,1.25-2.32.05-4.15-.49-5.24-.91.1-.42.2-.83.3-1.25Z"/>
    <path class="cls-1" d="M15.18,10.2c-1.72,0-3.42-.31-5.03-.93l-.2-.08.42-1.73.26.1c1.55.61,3.18.91,4.84.89,1.79-.02,3.59-.41,5.23-1.15l.3-.14.22,1.68-.17.08c-1.76.8-3.64,1.23-5.57,1.27-.1,0-.2,0-.3,0ZM10.52,8.89c1.59.58,3.25.85,4.94.82,1.81-.04,3.56-.43,5.21-1.15l-.09-.67c-1.61.68-3.38,1.05-5.12,1.06-1.63.01-3.23-.26-4.76-.83l-.19.77Z"/>
  </g>
  <g>
    <path class="cls-3" d="M17.33,13.97c.38-.36.69-.43.91-.42.45.02.65.4,1.14.42.31.01.58-.13.76-.25"/>
    <path class="cls-1" d="M17.6,14.23c.16-.15.36-.31.6-.31s.4.16.59.26c.52.26,1.07.18,1.54-.14.39-.26.02-.91-.37-.64-.23.16-.49.26-.77.16-.24-.09-.43-.26-.68-.33-.55-.14-1.04.13-1.44.49-.36.32.17.84.52.52h0Z"/>
  </g>
  <g>
    <path class="cls-3" d="M13.43,13.97c-.38-.36-.69-.43-.91-.42-.45.02-.65.4-1.14.42-.31.01-.58-.13-.76-.25"/>
    <path class="cls-1" d="M13.69,13.71c-.4-.35-.89-.63-1.44-.49-.24.06-.42.22-.64.32-.29.13-.55.02-.8-.14-.4-.27-.77.37-.37.64.47.32,1.02.4,1.54.14.18-.09.35-.25.56-.26.24-.01.45.16.62.31.35.32.88-.21.52-.52h0Z"/>
  </g>
  <path class="cls-1" d="M6.89,20.48c.75.66,1.81.98,2.79.76,1.26-.28,2.18-1.37,2.39-2.62.06-.35-.48-.5-.53-.15-.18,1.07-.91,1.99-2,2.23-.78.17-1.67-.1-2.25-.62-.27-.24-.66.15-.39.39h0Z"/>
  <path class="cls-1" d="M18.6,19.05c.26.88.88,1.69,1.69,2.12,1.32.7,2.9.39,3.99-.58.27-.24-.13-.63-.39-.39-.95.85-2.36,1.08-3.47.41-.61-.37-1.08-1.01-1.28-1.7-.1-.34-.64-.2-.53.15h0Z"/>
  <path class="cls-1" d="M8.96,21.26c1.23,1.19,2.8,2.06,4.47,2.44,2.3.53,4.72.14,6.77-1.02.59-.33,1.14-.72,1.65-1.17.27-.24-.13-.63-.39-.39-1.08.96-2.42,1.65-3.82,2-2.25.57-4.64.18-6.62-1-.6-.36-1.16-.78-1.66-1.26-.26-.25-.65.14-.39.39h0Z"/>
  <g>
    <path class="cls-5" d="M13.22,16.76c.11-.54.32-1.36.8-2.27.42-.81.8-1.55,1.33-1.55.52,0,.92.74,1.33,1.51.44.83.65,1.59.75,2.12.15-.05.66-.2,1.17.04.67.31.82,1.05.87,1.29.22,1.04-.33,2.27-.98,2.39-.39.07-.56-.29-1.02-.19-.41.09-.41.41-.95.68-.45.23-.89.23-1.17.23-.27,0-.78,0-1.29-.3-.47-.28-.45-.52-.84-.64-.47-.15-.66.15-1.02.04-.61-.2-.91-1.37-.72-2.27.07-.31.22-1.02.8-1.21.42-.14.82.08.95.15Z"/>
    <path class="cls-1" d="M15.44,21.25s-.07,0-.1,0c-.28,0-.85,0-1.41-.34-.25-.15-.38-.29-.49-.4-.1-.11-.16-.17-.3-.22-.18-.06-.29-.02-.44.02-.15.04-.34.1-.58.02-.77-.25-1.1-1.56-.88-2.56.07-.35.25-1.16.96-1.39.31-.1.61-.05.85.03.17-.71.42-1.39.75-2.03.45-.87.87-1.68,1.54-1.69h0c.67,0,1.09.8,1.54,1.64.32.61.57,1.26.72,1.93.29-.06.69-.07,1.09.12.78.37.95,1.19,1.01,1.46.15.69-.01,1.52-.4,2.09-.22.33-.49.53-.78.59-.26.05-.45-.04-.6-.11-.14-.07-.25-.11-.41-.08-.14.03-.21.1-.32.22-.12.13-.28.29-.57.44-.45.23-.89.26-1.19.26ZM12.96,19.77c.1,0,.21.01.33.05.27.09.39.22.52.35.09.1.18.2.37.31.45.26.91.27,1.16.27.26,0,.66,0,1.06-.2.22-.11.33-.23.44-.34.14-.15.28-.3.57-.36.33-.07.56.03.73.11.13.06.21.09.31.08.15-.03.32-.16.46-.38.26-.39.46-1.07.32-1.72-.04-.21-.18-.85-.73-1.11-.41-.19-.83-.08-.99-.03l-.27.09-.05-.28c-.14-.72-.39-1.41-.73-2.05-.34-.65-.74-1.38-1.11-1.38h0c-.37,0-.75.72-1.11,1.42-.36.69-.62,1.44-.77,2.21l-.07.34-.3-.18c-.12-.07-.44-.23-.74-.13-.44.15-.57.76-.63,1.03-.18.82.11,1.84.55,1.99.09.03.16.01.3-.03.1-.03.23-.07.39-.07Z"/>
  </g>
</svg>